<svg xmlns="http://www.w3.org/2000/svg" width="920" height="520" viewBox="0 0 920 520">
<rect width="100%" height="100%" fill="#ffffff"/>
<text x="82" y="30" font-size="22" font-weight="700" fill="#0f172a">MAP5 by Source Type</text>
<text x="82" y="498" font-size="13" fill="#475569">Loop epoch</text>
<text x="18" y="246.0" font-size="13" fill="#475569" transform="rotate(-90 18 246.0)">MAP5</text>
<line x1="82" y1="438.0" x2="890" y2="438.0" stroke="#e5e7eb"/><text x="70" y="442.0" text-anchor="end" font-size="12" fill="#475569">0.0</text><line x1="82" y1="361.2" x2="890" y2="361.2" stroke="#e5e7eb"/><text x="70" y="365.2" text-anchor="end" font-size="12" fill="#475569">15.8</text><line x1="82" y1="284.4" x2="890" y2="284.4" stroke="#e5e7eb"/><text x="70" y="288.4" text-anchor="end" font-size="12" fill="#475569">31.6</text><line x1="82" y1="207.6" x2="890" y2="207.6" stroke="#e5e7eb"/><text x="70" y="211.6" text-anchor="end" font-size="12" fill="#475569">47.4</text><line x1="82" y1="130.8" x2="890" y2="130.8" stroke="#e5e7eb"/><text x="70" y="134.8" text-anchor="end" font-size="12" fill="#475569">63.2</text><line x1="82" y1="54.0" x2="890" y2="54.0" stroke="#e5e7eb"/><text x="70" y="58.0" text-anchor="end" font-size="12" fill="#475569">79.0</text>
<line x1="82" y1="438" x2="890" y2="438" stroke="#334155"/>
<line x1="82" y1="54" x2="82" y2="438" stroke="#334155"/>
<line x1="82.0" y1="438" x2="82.0" y2="444" stroke="#334155"/><text x="82.0" y="462" text-anchor="middle" font-size="12" fill="#334155">1</text><line x1="171.8" y1="438" x2="171.8" y2="444" stroke="#334155"/><text x="171.8" y="462" text-anchor="middle" font-size="12" fill="#334155">2</text><line x1="261.6" y1="438" x2="261.6" y2="444" stroke="#334155"/><text x="261.6" y="462" text-anchor="middle" font-size="12" fill="#334155">3</text><line x1="351.3" y1="438" x2="351.3" y2="444" stroke="#334155"/><text x="351.3" y="462" text-anchor="middle" font-size="12" fill="#334155">4</text><line x1="441.1" y1="438" x2="441.1" y2="444" stroke="#334155"/><text x="441.1" y="462" text-anchor="middle" font-size="12" fill="#334155">5</text><line x1="530.9" y1="438" x2="530.9" y2="444" stroke="#334155"/><text x="530.9" y="462" text-anchor="middle" font-size="12" fill="#334155">6</text><line x1="620.7" y1="438" x2="620.7" y2="444" stroke="#334155"/><text x="620.7" y="462" text-anchor="middle" font-size="12" fill="#334155">7</text><line x1="710.4" y1="438" x2="710.4" y2="444" stroke="#334155"/><text x="710.4" y="462" text-anchor="middle" font-size="12" fill="#334155">8</text><line x1="800.2" y1="438" x2="800.2" y2="444" stroke="#334155"/><text x="800.2" y="462" text-anchor="middle" font-size="12" fill="#334155">9</text><line x1="890.0" y1="438" x2="890.0" y2="444" stroke="#334155"/><text x="890.0" y="462" text-anchor="middle" font-size="12" fill="#334155">10</text>
<polyline fill="none" stroke="#2563eb" stroke-width="3" points="82.0,138.9 171.8,212.8 261.6,135.6 351.3,150.8 441.1,114.0 530.9,219.9 620.7,114.0 710.4,151.8 800.2,97.8 890.0,150.8"/><circle cx="82.0" cy="138.9" r="4" fill="#2563eb"/><circle cx="171.8" cy="212.8" r="4" fill="#2563eb"/><circle cx="261.6" cy="135.6" r="4" fill="#2563eb"/><circle cx="351.3" cy="150.8" r="4" fill="#2563eb"/><circle cx="441.1" cy="114.0" r="4" fill="#2563eb"/><circle cx="530.9" cy="219.9" r="4" fill="#2563eb"/><circle cx="620.7" cy="114.0" r="4" fill="#2563eb"/><circle cx="710.4" cy="151.8" r="4" fill="#2563eb"/><circle cx="800.2" cy="97.8" r="4" fill="#2563eb"/><circle cx="890.0" cy="150.8" r="4" fill="#2563eb"/><polyline fill="none" stroke="#dc2626" stroke-width="3" points="82.0,149.7 171.8,212.8 261.6,114.0 351.3,196.7 441.1,130.2 530.9,232.3 620.7,95.1 710.4,141.0 800.2,108.6 890.0,196.7"/><circle cx="82.0" cy="149.7" r="4" fill="#dc2626"/><circle cx="171.8" cy="212.8" r="4" fill="#dc2626"/><circle cx="261.6" cy="114.0" r="4" fill="#dc2626"/><circle cx="351.3" cy="196.7" r="4" fill="#dc2626"/><circle cx="441.1" cy="130.2" r="4" fill="#dc2626"/><circle cx="530.9" cy="232.3" r="4" fill="#dc2626"/><circle cx="620.7" cy="95.1" r="4" fill="#dc2626"/><circle cx="710.4" cy="141.0" r="4" fill="#dc2626"/><circle cx="800.2" cy="108.6" r="4" fill="#dc2626"/><circle cx="890.0" cy="196.7" r="4" fill="#dc2626"/><polyline fill="none" stroke="#0891b2" stroke-width="3" points="82.0,303.0 171.8,326.2 261.6,227.4 351.3,272.8 441.1,238.2 530.9,352.2 620.7,219.3 710.4,276.6 800.2,227.4 890.0,272.8"/><circle cx="82.0" cy="303.0" r="4" fill="#0891b2"/><circle cx="171.8" cy="326.2" r="4" fill="#0891b2"/><circle cx="261.6" cy="227.4" r="4" fill="#0891b2"/><circle cx="351.3" cy="272.8" r="4" fill="#0891b2"/><circle cx="441.1" cy="238.2" r="4" fill="#0891b2"/><circle cx="530.9" cy="352.2" r="4" fill="#0891b2"/><circle cx="620.7" cy="219.3" r="4" fill="#0891b2"/><circle cx="710.4" cy="276.6" r="4" fill="#0891b2"/><circle cx="800.2" cy="227.4" r="4" fill="#0891b2"/><circle cx="890.0" cy="272.8" r="4" fill="#0891b2"/><polyline fill="none" stroke="#ea580c" stroke-width="3" points="82.0,242.5 171.8,336.5 261.6,253.3 351.3,284.7 441.1,265.2 530.9,331.6 620.7,235.5 710.4,264.1 800.2,249.0 890.0,284.7"/><circle cx="82.0" cy="242.5" r="4" fill="#ea580c"/><circle cx="171.8" cy="336.5" r="4" fill="#ea580c"/><circle cx="261.6" cy="253.3" r="4" fill="#ea580c"/><circle cx="351.3" cy="284.7" r="4" fill="#ea580c"/><circle cx="441.1" cy="265.2" r="4" fill="#ea580c"/><circle cx="530.9" cy="331.6" r="4" fill="#ea580c"/><circle cx="620.7" cy="235.5" r="4" fill="#ea580c"/><circle cx="710.4" cy="264.1" r="4" fill="#ea580c"/><circle cx="800.2" cy="249.0" r="4" fill="#ea580c"/><circle cx="890.0" cy="284.7" r="4" fill="#ea580c"/>
<rect x="700" y="44" width="12" height="12" fill="#2563eb"/><text x="718" y="54" font-size="13" fill="#0f172a">Human</text><rect x="700" y="66" width="12" height="12" fill="#dc2626"/><text x="718" y="76" font-size="13" fill="#0f172a">LLM</text><rect x="700" y="88" width="12" height="12" fill="#0891b2"/><text x="718" y="98" font-size="13" fill="#0f172a">Human Target</text><rect x="700" y="110" width="12" height="12" fill="#ea580c"/><text x="718" y="120" font-size="13" fill="#0f172a">LLM Target</text>
</svg>
