<svg xmlns="http://www.w3.org/2000/svg" width="920" height="520" viewBox="0 0 920 520">
<rect width="100%" height="100%" fill="#ffffff"/>
<text x="82" y="30" font-size="22" font-weight="700" fill="#0f172a">LLM Selection Ratio by Epoch</text>
<text x="82" y="498" font-size="13" fill="#475569">Loop epoch</text>
<text x="18" y="246.0" font-size="13" fill="#475569" transform="rotate(-90 18 246.0)">LLM ratio (%)</text>
<line x1="82" y1="438.0" x2="890" y2="438.0" stroke="#e5e7eb"/><text x="70" y="442.0" text-anchor="end" font-size="12" fill="#475569">0.0</text><line x1="82" y1="361.2" x2="890" y2="361.2" stroke="#e5e7eb"/><text x="70" y="365.2" text-anchor="end" font-size="12" fill="#475569">20.0</text><line x1="82" y1="284.4" x2="890" y2="284.4" stroke="#e5e7eb"/><text x="70" y="288.4" text-anchor="end" font-size="12" fill="#475569">40.0</text><line x1="82" y1="207.6" x2="890" y2="207.6" stroke="#e5e7eb"/><text x="70" y="211.6" text-anchor="end" font-size="12" fill="#475569">60.0</text><line x1="82" y1="130.8" x2="890" y2="130.8" stroke="#e5e7eb"/><text x="70" y="134.8" text-anchor="end" font-size="12" fill="#475569">80.0</text><line x1="82" y1="54.0" x2="890" y2="54.0" stroke="#e5e7eb"/><text x="70" y="58.0" text-anchor="end" font-size="12" fill="#475569">100.0</text>
<line x1="82" y1="438" x2="890" y2="438" stroke="#334155"/>
<line x1="82" y1="54" x2="82" y2="438" stroke="#334155"/>
<line x1="82.0" y1="438" x2="82.0" y2="444" stroke="#334155"/><text x="82.0" y="462" text-anchor="middle" font-size="12" fill="#334155">1</text><line x1="890.0" y1="438" x2="890.0" y2="444" stroke="#334155"/><text x="890.0" y="462" text-anchor="middle" font-size="12" fill="#334155">2</text>
<polyline fill="none" stroke="#7c3aed" stroke-width="3" points="82.0,335.6 890.0,105.2"/><circle cx="82.0" cy="335.6" r="4" fill="#7c3aed"/><circle cx="890.0" cy="105.2" r="4" fill="#7c3aed"/>
<rect x="700" y="44" width="12" height="12" fill="#7c3aed"/><text x="718" y="54" font-size="13" fill="#0f172a">llm_ratio</text>
</svg>
