<svg xmlns="http://www.w3.org/2000/svg" width="920" height="520" viewBox="0 0 920 520">
<rect width="100%" height="100%" fill="#ffffff"/>
<text x="82" y="30" font-size="22" font-weight="700" fill="#0f172a">MAP5 by Source Type</text>
<text x="82" y="498" font-size="13" fill="#475569">Loop epoch</text>
<text x="18" y="246.0" font-size="13" fill="#475569" transform="rotate(-90 18 246.0)">MAP5</text>
<line x1="82" y1="438.0" x2="890" y2="438.0" stroke="#e5e7eb"/><text x="70" y="442.0" text-anchor="end" font-size="12" fill="#475569">0.0</text><line x1="82" y1="361.2" x2="890" y2="361.2" stroke="#e5e7eb"/><text x="70" y="365.2" text-anchor="end" font-size="12" fill="#475569">11.9</text><line x1="82" y1="284.4" x2="890" y2="284.4" stroke="#e5e7eb"/><text x="70" y="288.4" text-anchor="end" font-size="12" fill="#475569">23.7</text><line x1="82" y1="207.6" x2="890" y2="207.6" stroke="#e5e7eb"/><text x="70" y="211.6" text-anchor="end" font-size="12" fill="#475569">35.6</text><line x1="82" y1="130.8" x2="890" y2="130.8" stroke="#e5e7eb"/><text x="70" y="134.8" text-anchor="end" font-size="12" fill="#475569">47.5</text><line x1="82" y1="54.0" x2="890" y2="54.0" stroke="#e5e7eb"/><text x="70" y="58.0" text-anchor="end" font-size="12" fill="#475569">59.3</text>
<line x1="82" y1="438" x2="890" y2="438" stroke="#334155"/>
<line x1="82" y1="54" x2="82" y2="438" stroke="#334155"/>
<line x1="82.0" y1="438" x2="82.0" y2="444" stroke="#334155"/><text x="82.0" y="462" text-anchor="middle" font-size="12" fill="#334155">1</text><line x1="171.8" y1="438" x2="171.8" y2="444" stroke="#334155"/><text x="171.8" y="462" text-anchor="middle" font-size="12" fill="#334155">2</text><line x1="261.6" y1="438" x2="261.6" y2="444" stroke="#334155"/><text x="261.6" y="462" text-anchor="middle" font-size="12" fill="#334155">3</text><line x1="351.3" y1="438" x2="351.3" y2="444" stroke="#334155"/><text x="351.3" y="462" text-anchor="middle" font-size="12" fill="#334155">4</text><line x1="441.1" y1="438" x2="441.1" y2="444" stroke="#334155"/><text x="441.1" y="462" text-anchor="middle" font-size="12" fill="#334155">5</text><line x1="530.9" y1="438" x2="530.9" y2="444" stroke="#334155"/><text x="530.9" y="462" text-anchor="middle" font-size="12" fill="#334155">6</text><line x1="620.7" y1="438" x2="620.7" y2="444" stroke="#334155"/><text x="620.7" y="462" text-anchor="middle" font-size="12" fill="#334155">7</text><line x1="710.4" y1="438" x2="710.4" y2="444" stroke="#334155"/><text x="710.4" y="462" text-anchor="middle" font-size="12" fill="#334155">8</text><line x1="800.2" y1="438" x2="800.2" y2="444" stroke="#334155"/><text x="800.2" y="462" text-anchor="middle" font-size="12" fill="#334155">9</text><line x1="890.0" y1="438" x2="890.0" y2="444" stroke="#334155"/><text x="890.0" y="462" text-anchor="middle" font-size="12" fill="#334155">10</text>
<polyline fill="none" stroke="#2563eb" stroke-width="3" points="82.0,95.1 171.8,124.3 261.6,98.0 351.3,125.3 441.1,115.9 530.9,138.0 620.7,106.2 710.4,137.2 800.2,111.5 890.0,144.4"/><circle cx="82.0" cy="95.1" r="4" fill="#2563eb"/><circle cx="171.8" cy="124.3" r="4" fill="#2563eb"/><circle cx="261.6" cy="98.0" r="4" fill="#2563eb"/><circle cx="351.3" cy="125.3" r="4" fill="#2563eb"/><circle cx="441.1" cy="115.9" r="4" fill="#2563eb"/><circle cx="530.9" cy="138.0" r="4" fill="#2563eb"/><circle cx="620.7" cy="106.2" r="4" fill="#2563eb"/><circle cx="710.4" cy="137.2" r="4" fill="#2563eb"/><circle cx="800.2" cy="111.5" r="4" fill="#2563eb"/><circle cx="890.0" cy="144.4" r="4" fill="#2563eb"/><polyline fill="none" stroke="#dc2626" stroke-width="3" points="82.0,97.0 171.8,146.8 261.6,118.9 351.3,163.6 441.1,148.3 530.9,173.5 620.7,128.8 710.4,172.4 800.2,145.1 890.0,168.8"/><circle cx="82.0" cy="97.0" r="4" fill="#dc2626"/><circle cx="171.8" cy="146.8" r="4" fill="#dc2626"/><circle cx="261.6" cy="118.9" r="4" fill="#dc2626"/><circle cx="351.3" cy="163.6" r="4" fill="#dc2626"/><circle cx="441.1" cy="148.3" r="4" fill="#dc2626"/><circle cx="530.9" cy="173.5" r="4" fill="#dc2626"/><circle cx="620.7" cy="128.8" r="4" fill="#dc2626"/><circle cx="710.4" cy="172.4" r="4" fill="#dc2626"/><circle cx="800.2" cy="145.1" r="4" fill="#dc2626"/><circle cx="890.0" cy="168.8" r="4" fill="#dc2626"/><polyline fill="none" stroke="#0891b2" stroke-width="3" points="82.0,264.4 171.8,304.1 261.6,283.4 351.3,328.1 441.1,321.7 530.9,345.6 620.7,290.5 710.4,348.8 800.2,301.6 890.0,349.3"/><circle cx="82.0" cy="264.4" r="4" fill="#0891b2"/><circle cx="171.8" cy="304.1" r="4" fill="#0891b2"/><circle cx="261.6" cy="283.4" r="4" fill="#0891b2"/><circle cx="351.3" cy="328.1" r="4" fill="#0891b2"/><circle cx="441.1" cy="321.7" r="4" fill="#0891b2"/><circle cx="530.9" cy="345.6" r="4" fill="#0891b2"/><circle cx="620.7" cy="290.5" r="4" fill="#0891b2"/><circle cx="710.4" cy="348.8" r="4" fill="#0891b2"/><circle cx="800.2" cy="301.6" r="4" fill="#0891b2"/><circle cx="890.0" cy="349.3" r="4" fill="#0891b2"/><polyline fill="none" stroke="#ea580c" stroke-width="3" points="82.0,225.9 171.8,265.1 261.6,243.1 351.3,270.4 441.1,251.4 530.9,271.8 620.7,247.7 710.4,269.8 800.2,259.1 890.0,267.3"/><circle cx="82.0" cy="225.9" r="4" fill="#ea580c"/><circle cx="171.8" cy="265.1" r="4" fill="#ea580c"/><circle cx="261.6" cy="243.1" r="4" fill="#ea580c"/><circle cx="351.3" cy="270.4" r="4" fill="#ea580c"/><circle cx="441.1" cy="251.4" r="4" fill="#ea580c"/><circle cx="530.9" cy="271.8" r="4" fill="#ea580c"/><circle cx="620.7" cy="247.7" r="4" fill="#ea580c"/><circle cx="710.4" cy="269.8" r="4" fill="#ea580c"/><circle cx="800.2" cy="259.1" r="4" fill="#ea580c"/><circle cx="890.0" cy="267.3" r="4" fill="#ea580c"/>
<rect x="700" y="44" width="12" height="12" fill="#2563eb"/><text x="718" y="54" font-size="13" fill="#0f172a">Human</text><rect x="700" y="66" width="12" height="12" fill="#dc2626"/><text x="718" y="76" font-size="13" fill="#0f172a">LLM</text><rect x="700" y="88" width="12" height="12" fill="#0891b2"/><text x="718" y="98" font-size="13" fill="#0f172a">Human Target</text><rect x="700" y="110" width="12" height="12" fill="#ea580c"/><text x="718" y="120" font-size="13" fill="#0f172a">LLM Target</text>
</svg>
