<svg xmlns="http://www.w3.org/2000/svg" width="1120" height="680" viewBox="0 0 1120 680">
<rect width="100%" height="100%" fill="#ffffff"/>
<text x="90" y="40" font-size="26" font-weight="700" fill="#0f172a">Source Bias Feedback Loop Summary</text>
<text x="90" y="70" font-size="14" fill="#475569">Standard loop, 10 epochs: LLM selections and target-source preference both rise over the run.</text>
<rect x="90" y="84" width="245" height="26" rx="4" fill="#f1f5f9"/>
<text x="102" y="102" font-size="13" fill="#334155">LLM ratio: 54.7% -> 65.2% (+10.5 pp)</text>
<rect x="354" y="84" width="330" height="26" rx="4" fill="#f1f5f9"/>
<text x="366" y="102" font-size="13" fill="#334155">LLM-target MAP5 gap: +5.95 -> +12.68 (+6.73)</text>
<line x1="90" y1="329.0" x2="1078" y2="329.0" stroke="#e2e8f0"/><text x="76" y="333.0" text-anchor="end" font-size="12" fill="#475569">0</text><line x1="90" y1="276.2" x2="1078" y2="276.2" stroke="#e2e8f0"/><text x="76" y="280.2" text-anchor="end" font-size="12" fill="#475569">25</text><line x1="90" y1="223.5" x2="1078" y2="223.5" stroke="#e2e8f0"/><text x="76" y="227.5" text-anchor="end" font-size="12" fill="#475569">50</text><line x1="90" y1="170.8" x2="1078" y2="170.8" stroke="#e2e8f0"/><text x="76" y="174.8" text-anchor="end" font-size="12" fill="#475569">75</text><line x1="90" y1="118.0" x2="1078" y2="118.0" stroke="#e2e8f0"/><text x="76" y="122.0" text-anchor="end" font-size="12" fill="#475569">100</text><line x1="90" y1="608.0" x2="1078" y2="608.0" stroke="#e2e8f0"/><text x="76" y="612.0" text-anchor="end" font-size="12" fill="#475569">0.0</text><line x1="90" y1="555.2" x2="1078" y2="555.2" stroke="#e2e8f0"/><text x="76" y="559.2" text-anchor="end" font-size="12" fill="#475569">3.6</text><line x1="90" y1="502.5" x2="1078" y2="502.5" stroke="#e2e8f0"/><text x="76" y="506.5" text-anchor="end" font-size="12" fill="#475569">7.3</text><line x1="90" y1="449.8" x2="1078" y2="449.8" stroke="#e2e8f0"/><text x="76" y="453.8" text-anchor="end" font-size="12" fill="#475569">10.9</text><line x1="90" y1="397.0" x2="1078" y2="397.0" stroke="#e2e8f0"/><text x="76" y="401.0" text-anchor="end" font-size="12" fill="#475569">14.6</text>
<text x="90" y="102" font-size="15" font-weight="700" fill="#0f172a">LLM selection ratio</text>
<text x="22" y="223.5" font-size="13" fill="#475569" transform="rotate(-90 22 223.5)">Percent</text>
<line x1="90" y1="329.0" x2="1078" y2="329.0" stroke="#334155"/>
<line x1="90" y1="118" x2="90" y2="329.0" stroke="#334155"/>
<polyline fill="none" stroke="#7c3aed" stroke-width="3.5" points="90.0,213.6 199.8,216.5 309.6,207.1 419.3,202.2 529.1,199.7 638.9,201.8 748.7,205.2 858.4,194.9 968.2,210.5 1078.0,191.4"/><circle cx="90.0" cy="213.6" r="4.2" fill="#7c3aed"/><circle cx="199.8" cy="216.5" r="4.2" fill="#7c3aed"/><circle cx="309.6" cy="207.1" r="4.2" fill="#7c3aed"/><circle cx="419.3" cy="202.2" r="4.2" fill="#7c3aed"/><circle cx="529.1" cy="199.7" r="4.2" fill="#7c3aed"/><circle cx="638.9" cy="201.8" r="4.2" fill="#7c3aed"/><circle cx="748.7" cy="205.2" r="4.2" fill="#7c3aed"/><circle cx="858.4" cy="194.9" r="4.2" fill="#7c3aed"/><circle cx="968.2" cy="210.5" r="4.2" fill="#7c3aed"/><circle cx="1078.0" cy="191.4" r="4.2" fill="#7c3aed"/>
<text x="90" y="381.0" font-size="15" font-weight="700" fill="#0f172a">LLM Target - Human Target MAP5</text>
<text x="22" y="502.5" font-size="13" fill="#475569" transform="rotate(-90 22 502.5)">MAP5 gap</text>
<line x1="90" y1="608" x2="1078" y2="608" stroke="#334155"/>
<line x1="90" y1="397.0" x2="90" y2="608" stroke="#334155"/>
<polyline fill="none" stroke="#ea580c" stroke-width="3.5" points="90.0,521.9 199.8,520.9 309.6,517.9 419.3,479.2 529.1,450.9 638.9,442.9 748.7,512.3 858.4,431.4 968.2,513.0 1078.0,424.5"/><circle cx="90.0" cy="521.9" r="4.2" fill="#ea580c"/><circle cx="199.8" cy="520.9" r="4.2" fill="#ea580c"/><circle cx="309.6" cy="517.9" r="4.2" fill="#ea580c"/><circle cx="419.3" cy="479.2" r="4.2" fill="#ea580c"/><circle cx="529.1" cy="450.9" r="4.2" fill="#ea580c"/><circle cx="638.9" cy="442.9" r="4.2" fill="#ea580c"/><circle cx="748.7" cy="512.3" r="4.2" fill="#ea580c"/><circle cx="858.4" cy="431.4" r="4.2" fill="#ea580c"/><circle cx="968.2" cy="513.0" r="4.2" fill="#ea580c"/><circle cx="1078.0" cy="424.5" r="4.2" fill="#ea580c"/>
<line x1="90.0" y1="608" x2="90.0" y2="615" stroke="#334155"/><text x="90.0" y="634" text-anchor="middle" font-size="12" fill="#334155">1</text><line x1="199.8" y1="608" x2="199.8" y2="615" stroke="#334155"/><text x="199.8" y="634" text-anchor="middle" font-size="12" fill="#334155">2</text><line x1="309.6" y1="608" x2="309.6" y2="615" stroke="#334155"/><text x="309.6" y="634" text-anchor="middle" font-size="12" fill="#334155">3</text><line x1="419.3" y1="608" x2="419.3" y2="615" stroke="#334155"/><text x="419.3" y="634" text-anchor="middle" font-size="12" fill="#334155">4</text><line x1="529.1" y1="608" x2="529.1" y2="615" stroke="#334155"/><text x="529.1" y="634" text-anchor="middle" font-size="12" fill="#334155">5</text><line x1="638.9" y1="608" x2="638.9" y2="615" stroke="#334155"/><text x="638.9" y="634" text-anchor="middle" font-size="12" fill="#334155">6</text><line x1="748.7" y1="608" x2="748.7" y2="615" stroke="#334155"/><text x="748.7" y="634" text-anchor="middle" font-size="12" fill="#334155">7</text><line x1="858.4" y1="608" x2="858.4" y2="615" stroke="#334155"/><text x="858.4" y="634" text-anchor="middle" font-size="12" fill="#334155">8</text><line x1="968.2" y1="608" x2="968.2" y2="615" stroke="#334155"/><text x="968.2" y="634" text-anchor="middle" font-size="12" fill="#334155">9</text><line x1="1078.0" y1="608" x2="1078.0" y2="615" stroke="#334155"/><text x="1078.0" y="634" text-anchor="middle" font-size="12" fill="#334155">10</text>
<text x="90" y="656" font-size="13" fill="#475569">Loop epoch</text>
</svg>
