<svg xmlns="http://www.w3.org/2000/svg" width="920" height="520" viewBox="0 0 920 520">
<rect width="100%" height="100%" fill="#ffffff"/>
<text x="82" y="30" font-size="22" font-weight="700" fill="#0f172a">MAP5 by Source Type</text>
<text x="82" y="498" font-size="13" fill="#475569">Loop epoch</text>
<text x="18" y="246.0" font-size="13" fill="#475569" transform="rotate(-90 18 246.0)">MAP5</text>
<line x1="82" y1="438.0" x2="890" y2="438.0" stroke="#e5e7eb"/><text x="70" y="442.0" text-anchor="end" font-size="12" fill="#475569">0.0</text><line x1="82" y1="361.2" x2="890" y2="361.2" stroke="#e5e7eb"/><text x="70" y="365.2" text-anchor="end" font-size="12" fill="#475569">0.2</text><line x1="82" y1="284.4" x2="890" y2="284.4" stroke="#e5e7eb"/><text x="70" y="288.4" text-anchor="end" font-size="12" fill="#475569">0.4</text><line x1="82" y1="207.6" x2="890" y2="207.6" stroke="#e5e7eb"/><text x="70" y="211.6" text-anchor="end" font-size="12" fill="#475569">0.6</text><line x1="82" y1="130.8" x2="890" y2="130.8" stroke="#e5e7eb"/><text x="70" y="134.8" text-anchor="end" font-size="12" fill="#475569">0.8</text><line x1="82" y1="54.0" x2="890" y2="54.0" stroke="#e5e7eb"/><text x="70" y="58.0" text-anchor="end" font-size="12" fill="#475569">1.0</text>
<line x1="82" y1="438" x2="890" y2="438" stroke="#334155"/>
<line x1="82" y1="54" x2="82" y2="438" stroke="#334155"/>
<line x1="82.0" y1="438" x2="82.0" y2="444" stroke="#334155"/><text x="82.0" y="462" text-anchor="middle" font-size="12" fill="#334155">1</text><line x1="890.0" y1="438" x2="890.0" y2="444" stroke="#334155"/><text x="890.0" y="462" text-anchor="middle" font-size="12" fill="#334155">2</text>
<polyline fill="none" stroke="#2563eb" stroke-width="3" points="82.0,438.0 890.0,438.0"/><circle cx="82.0" cy="438.0" r="4" fill="#2563eb"/><circle cx="890.0" cy="438.0" r="4" fill="#2563eb"/><polyline fill="none" stroke="#dc2626" stroke-width="3" points="82.0,438.0 890.0,438.0"/><circle cx="82.0" cy="438.0" r="4" fill="#dc2626"/><circle cx="890.0" cy="438.0" r="4" fill="#dc2626"/><polyline fill="none" stroke="#0891b2" stroke-width="3" points="82.0,438.0 890.0,438.0"/><circle cx="82.0" cy="438.0" r="4" fill="#0891b2"/><circle cx="890.0" cy="438.0" r="4" fill="#0891b2"/><polyline fill="none" stroke="#ea580c" stroke-width="3" points="82.0,438.0 890.0,438.0"/><circle cx="82.0" cy="438.0" r="4" fill="#ea580c"/><circle cx="890.0" cy="438.0" r="4" fill="#ea580c"/>
<rect x="700" y="44" width="12" height="12" fill="#2563eb"/><text x="718" y="54" font-size="13" fill="#0f172a">Human</text><rect x="700" y="66" width="12" height="12" fill="#dc2626"/><text x="718" y="76" font-size="13" fill="#0f172a">LLM</text><rect x="700" y="88" width="12" height="12" fill="#0891b2"/><text x="718" y="98" font-size="13" fill="#0f172a">Human Target</text><rect x="700" y="110" width="12" height="12" fill="#ea580c"/><text x="718" y="120" font-size="13" fill="#0f172a">LLM Target</text>
</svg>
